<svg width="518" height="75" viewBox="0 0 518 75" fill="none" xmlns="http://www.w3.org/2000/svg">
<g id="0">
<g id="CourtSync">
<path d="M14.1618 74.4806C9.61603 74.4806 6.11929 73.2567 3.67157 70.809C1.22385 68.3613 -5.73912e-06 64.8645 -5.73912e-06 60.3188V14.1618C-5.73912e-06 9.61602 1.22385 6.11928 3.67157 3.67156C6.11929 1.22385 9.61603 -1.27798e-05 14.1618 -1.27798e-05H35.6667C40.2125 -1.27798e-05 43.7093 1.22385 46.157 3.67156C48.6047 6.11928 49.8286 9.61602 49.8286 14.1618V27.7991H32.5197V17.8334C32.5197 16.085 31.6455 15.2108 29.8971 15.2108H19.9314C18.183 15.2108 17.3089 16.085 17.3089 17.8334V56.6472C17.3089 58.3956 18.183 59.2697 19.9314 59.2697H29.8971C31.6455 59.2697 32.5197 58.3956 32.5197 56.6472V45.2128H49.8286V60.3188C49.8286 64.8645 48.6047 68.3613 46.157 70.809C43.7093 73.2567 40.2125 74.4806 35.6667 74.4806H14.1618ZM69.3834 74.4806C64.8376 74.4806 61.3409 73.2567 58.8932 70.809C56.4454 68.3613 55.2216 64.8645 55.2216 60.3188V14.1618C55.2216 9.61602 56.4454 6.11928 58.8932 3.67156C61.3409 1.22385 64.8376 -1.27798e-05 69.3834 -1.27798e-05H90.8883C95.4341 -1.27798e-05 98.9308 1.22385 101.379 3.67156C103.826 6.11928 105.05 9.61602 105.05 14.1618V60.3188C105.05 64.8645 103.826 68.3613 101.379 70.809C98.9308 73.2567 95.4341 74.4806 90.8883 74.4806H69.3834ZM72.5305 56.6472C72.5305 58.3956 73.4046 59.2697 75.153 59.2697H85.1187C86.8671 59.2697 87.7413 58.3956 87.7413 56.6472V17.8334C87.7413 16.085 86.8671 15.2108 85.1187 15.2108H75.153C73.4046 15.2108 72.5305 16.085 72.5305 17.8334V56.6472ZM144.109 0.524498H161.418V73.9561H125.751C121.205 73.9561 117.709 72.7322 115.261 70.2845C112.813 67.8368 111.589 64.34 111.589 59.7943V8.39216L107.918 0.524498H128.898V56.1227C128.898 57.871 129.772 58.7452 131.521 58.7452H144.109V0.524498ZM220.257 73.9561H202.424L194.556 51.1923H186.688V73.9561H169.379V8.39216L165.708 0.524498H205.046C209.592 0.524498 213.089 1.74836 215.536 4.19607C217.984 6.64379 219.208 10.1405 219.208 14.6863V37.0305C219.208 43.6043 216.795 47.9053 211.97 49.9334L220.257 73.9561ZM186.688 35.9814H199.277C201.025 35.9814 201.899 35.1073 201.899 33.3589V18.3579C201.899 16.6095 201.025 15.7353 199.277 15.7353H186.688V35.9814ZM227.228 15.7353V0.524498H277.056V15.7353H260.796V73.9561H243.487V15.7353H227.228Z" fill="white"/>
<path d="M282.149 60.3188L284.352 50.5629H301.661L300.297 56.6472C299.878 58.3956 300.542 59.2697 302.291 59.2697H312.781C314.599 59.2697 315.683 58.3956 316.033 56.6472L317.816 48.4648C318.236 46.8563 317.676 45.8772 316.138 45.5276L298.829 41.4364C290.926 39.5481 287.919 34.3729 289.807 25.9108L292.325 14.6863C293.444 9.58106 295.437 5.87451 298.304 3.56666C301.172 1.18888 305.158 -1.27798e-05 310.263 -1.27798e-05H331.244C335.649 -1.27798e-05 338.831 1.25881 340.79 3.77646C342.748 6.22418 343.237 9.68596 342.258 14.1618L340.265 22.9736H322.956L324.11 17.8334C324.53 16.085 323.865 15.2108 322.117 15.2108H312.151C310.333 15.2108 309.249 16.085 308.899 17.8334L307.431 24.5471C307.011 26.1556 307.571 27.1347 309.109 27.4844L326.418 31.5756C334.321 33.4638 337.328 38.639 335.44 47.1011L332.607 59.7943C331.488 64.8995 329.495 68.641 326.628 71.0188C323.761 73.3266 319.774 74.4806 314.669 74.4806H293.164C288.758 74.4806 285.576 73.2567 283.618 70.809C281.66 68.2913 281.17 64.7946 282.149 60.3188ZM346.703 0.524498H364.012L368.942 29.2677L386.041 0.524498H405.448L374.502 49.0942L368.942 73.9561H351.633L357.193 49.0942L346.703 0.524498ZM445.067 0.524498H462.375L446.011 73.9561H428.177L419.785 33.8834L410.868 73.9561H393.56L408.246 8.18236L406.253 0.524498H427.758L436.15 40.5971L445.067 0.524498ZM466.448 74.4806C462.042 74.4806 458.86 73.2567 456.902 70.809C454.944 68.2913 454.454 64.7946 455.433 60.3188L465.609 14.6863C466.798 9.58106 468.791 5.87451 471.588 3.56666C474.456 1.18888 478.442 -1.27798e-05 483.547 -1.27798e-05H504.528C508.934 -1.27798e-05 512.116 1.25881 514.074 3.77646C516.032 6.22418 516.521 9.68596 515.542 14.1618L512.5 27.7991H495.191L497.394 17.8334C497.814 16.085 497.15 15.2108 495.401 15.2108H485.435C483.617 15.2108 482.533 16.085 482.183 17.8334L473.581 56.6472C473.162 58.3956 473.826 59.2697 475.575 59.2697H485.54C487.359 59.2697 488.443 58.3956 488.792 56.6472L491.31 45.2128H508.619L505.367 59.7943C504.178 64.8995 502.15 68.641 499.283 71.0188C496.485 73.3266 492.534 74.4806 487.429 74.4806H466.448Z" fill="#015AFF"/>
</g>
</g>
</svg>
