<svg preserveAspectRatio="none" overflow="visible" style="display: block;" width="16.8016" height="23.5549" viewBox="0 0 16.8016 23.5549" fill="none" xmlns="http://www.w3.org/2000/svg">
<g id="outline / activity">
<path id="Vector 4130" d="M2.22235 11.4127C2.33091 10.8712 1.97994 10.3442 1.43843 10.2357C0.896923 10.1271 0.369933 10.4781 0.261368 11.0196L1.24186 11.2161L2.22235 11.4127ZM9.60903 4.96533H10.609V4.93917L10.6077 4.91305L9.60903 4.96533ZM9.40142 1.00001L10.4001 0.947723C10.3846 0.652627 10.2394 0.379474 10.0035 0.201563C9.76755 0.0236514 9.46501 -0.0407989 9.17704 0.0255066L9.40142 1.00001ZM3.70588 11.4533C3.94512 11.951 4.54259 12.1606 5.04037 11.9214C5.53815 11.6822 5.74774 11.0847 5.5085 10.5869L4.60719 11.0201L3.70588 11.4533ZM1.24186 11.2161C0.261368 11.0196 0.261282 11.02 0.261189 11.0205C0.261146 11.0207 0.261044 11.0212 0.260959 11.0216C0.260788 11.0225 0.260584 11.0235 0.260346 11.0247C0.259871 11.0271 0.259264 11.0302 0.258531 11.034C0.257066 11.0416 0.255099 11.0518 0.252683 11.0647C0.247852 11.0906 0.241225 11.1269 0.233236 11.1731C0.217262 11.2655 0.195808 11.3975 0.17236 11.5634C0.125518 11.8949 0.0704134 12.364 0.0353609 12.9255C-0.0342773 14.041 -0.0271822 15.557 0.301378 17.0945C0.629343 18.6292 1.29337 20.2567 2.5939 21.5047C3.91541 22.7729 5.7959 23.5549 8.36119 23.5549V22.5549V21.5549C6.23018 21.5549 4.8726 20.9195 3.97869 20.0617C3.06378 19.1837 2.53501 17.9765 2.25722 16.6765C1.98002 15.3794 1.96839 14.0606 2.03148 13.0501C2.06278 12.5486 2.1119 12.1319 2.15268 11.8433C2.17305 11.6992 2.19126 11.5875 2.204 11.5138C2.21037 11.477 2.21536 11.4497 2.21856 11.4326C2.22016 11.4241 2.22131 11.4181 2.22196 11.4147C2.22228 11.4131 2.22248 11.412 2.22255 11.4117C2.22258 11.4115 2.22258 11.4115 2.22255 11.4117C2.22253 11.4118 2.22248 11.412 2.22247 11.4121C2.22241 11.4124 2.22235 11.4127 1.24186 11.2161ZM8.36119 22.5549V23.5549C10.8762 23.5549 12.7838 22.9262 14.157 21.8409C15.5308 20.7552 16.2719 19.29 16.5953 17.7989C16.9166 16.3175 16.8339 14.7832 16.5445 13.4707C16.2599 12.1795 15.7492 10.9878 15.1096 10.2418L14.3505 10.8927L13.5913 11.5436C13.9384 11.9484 14.3464 12.79 14.5914 13.9012C14.8317 14.9912 14.8894 16.2286 14.6408 17.375C14.3942 18.5117 13.8551 19.5304 12.917 20.2718C11.9784 21.0135 10.5425 21.5549 8.36119 21.5549V22.5549ZM14.3505 10.8927L15.1096 10.2418C14.556 9.59609 13.9565 9.0817 13.3993 8.63885C12.8113 8.17155 12.3461 7.83888 11.8955 7.44749C11.0753 6.73518 10.609 6.0807 10.609 4.96533H9.60903H8.60903C8.60903 6.88106 9.52683 8.03936 10.584 8.95751C11.0721 9.38135 11.6689 9.81833 12.1549 10.2046C12.6717 10.6153 13.1582 11.0384 13.5913 11.5436L14.3505 10.8927ZM9.60903 4.96533L10.6077 4.91305L10.4001 0.947723L9.40142 1.00001L8.40279 1.05229L8.6104 5.01762L9.60903 4.96533ZM9.40142 1.00001C9.17704 0.0255066 9.17654 0.0256218 9.17601 0.0257448C9.17579 0.0257961 9.17522 0.0259275 9.17478 0.0260305C9.17389 0.026237 9.17286 0.0264753 9.17171 0.0267458C9.1694 0.0272867 9.16656 0.0279562 9.16321 0.0287564C9.1565 0.0303566 9.14771 0.03248 9.13693 0.0351428C9.11537 0.0404674 9.08582 0.0479549 9.04893 0.0577361C8.97518 0.0772883 8.87187 0.106068 8.74432 0.145135C8.48967 0.223131 8.13578 0.342921 7.72583 0.513371C6.91334 0.851199 5.84329 1.40338 4.89126 2.25386C3.93234 3.11049 3.07053 4.29183 2.74881 5.86769C2.4268 7.44498 2.67019 9.29832 3.70588 11.4533L4.60719 11.0201L5.5085 10.5869C4.61507 8.72796 4.49319 7.32184 4.70839 6.26775C4.92387 5.21224 5.50176 4.3903 6.22368 3.74538C6.95249 3.09432 7.80441 2.64669 8.49369 2.3601C8.83463 2.21834 9.12657 2.11976 9.33003 2.05745C9.43153 2.02636 9.51035 2.0045 9.56146 1.99095C9.587 1.98418 9.60556 1.9795 9.61651 1.97679C9.62198 1.97544 9.62555 1.97458 9.62713 1.97421C9.62792 1.97402 9.62821 1.97395 9.62799 1.974C9.62788 1.97403 9.62765 1.97408 9.62728 1.97417C9.6271 1.97421 9.62673 1.97429 9.62664 1.97432C9.62624 1.97441 9.62581 1.97451 9.40142 1.00001Z" fill="#616161"/>
</g>
</svg>
